<?xml version="1.0" encoding="UTF-8"?> <svg xmlns="http://www.w3.org/2000/svg" width="948" height="181" viewBox="0 0 948 181" fill="none"> <g clip-path="url(#clip0_14_75)"> <path fill-rule="evenodd" clip-rule="evenodd" d="M149.57 7.909V15.817L152.82 17.115C154.607 17.828 160.056 20.358 164.929 22.736C169.801 25.114 174.202 27.06 174.708 27.06C175.236 27.06 175.509 21.414 175.349 13.81L175.07 0.56L162.32 0.280001L149.57 0V7.909ZM99.5703 21.141C89.3953 26.035 73.9833 33.418 65.3203 37.548L49.5703 45.057V74.436C49.5703 96.745 49.2693 104.053 48.3203 104.804C47.6333 105.348 42.7953 107.21 37.5703 108.942C32.3453 110.674 27.4543 112.482 26.7013 112.959C25.9483 113.435 24.3733 116.198 23.2013 119.098C20.4753 125.843 18.0673 127.635 15.4933 124.5C14.4443 123.223 14.4937 122 13.4933 122.5C11.9937 123.5 10.5093 141.473 11.1553 145.778C11.9413 151.02 14.9553 155.729 19.4743 158.774C22.2073 160.616 24.1543 161.026 29.9503 160.982C34.3313 160.948 41.3013 161.932 48.0703 163.54C54.1203 164.977 62.5843 166.876 66.8783 167.76C74.2893 169.286 74.7843 169.558 76.5953 173.109C79.0363 177.894 85.2653 181.06 92.2373 181.06C103.04 181.06 109.193 176.985 114.409 166.375L118.07 158.927L133.926 151.493C142.646 147.405 149.959 144.06 150.176 144.06C150.392 144.06 150.57 144.735 150.57 145.56C150.57 146.385 150.493 146.5 149.993 147C149.407 147.586 145.92 149.99 142.07 153.563L135.07 160.059L163.07 159.809L191.07 159.56L191.328 101.88L191.586 44.2L189.347 43.489C188.115 43.098 181.699 40.201 175.088 37.052C141.693 21.14 121.598 12.069 119.926 12.151C118.905 12.201 109.745 16.246 99.5703 21.141ZM110.561 86.39C113.339 87.114 115.173 88.197 115.369 89.231C115.543 90.15 113.268 93.75 110.312 97.231L104.939 103.56L91.0043 103.877C83.3403 104.051 71.8953 103.887 65.5703 103.512L54.0703 102.83L58.5703 98.904C66.6623 91.843 74.4623 87.707 82.0703 86.441C91.1403 84.931 104.863 84.907 110.561 86.39ZM91.5703 121.911C91.5703 125.231 89.3513 130.503 86.7903 133.265C81.6163 138.845 65.7443 141.234 61.5703 137.06C55.8853 131.375 62.8763 125.125 78.8303 121.628C88.1453 119.587 91.5703 119.663 91.5703 121.911ZM23.8533 138.533C26.4833 139.331 35.7083 141.132 44.3533 142.535C65.0083 145.887 64.5703 145.768 64.5703 148.006C64.5703 150.786 60.2653 153.729 55.0583 154.51C44.8683 156.038 21.8793 149.811 17.5923 144.361C15.0423 141.119 14.8903 137.056 17.3203 137.071C18.2823 137.077 21.2223 137.735 23.8533 138.533ZM108.329 143.31C114.46 149.855 113.885 163.581 107.207 170.111C100.067 177.091 92.5703 170.609 92.5703 157.455C92.5703 145.21 102.098 136.658 108.329 143.31Z" fill="black"></path> <path d="M269.981 100C282.372 100 292.361 94.9643 298.893 85.8571L286.79 73.6429C282.564 79.3214 277.377 82.4286 270.941 82.4286C259.895 82.4286 252.211 73.8571 252.211 61C252.211 48.1429 259.895 39.5714 270.941 39.5714C277.377 39.5714 282.564 42.6786 286.79 48.3571L298.893 36.1429C292.361 27.0357 282.372 22 269.981 22C248.657 22 233 38.1786 233 61C233 83.8214 248.657 100 269.981 100Z" fill="black"></path> <path d="M376.27 98.5H396.057L366.28 23.5H347.55L317.869 98.5H337.272L342.555 83.9286H370.987L376.27 98.5ZM348.126 68.2857L356.771 44.2857L365.416 68.2857H348.126Z" fill="black"></path> <path d="M462.731 98.5H483.094L468.59 74.9286C476.947 70.4286 481.749 62.2857 481.749 51.25C481.749 34.1071 470.223 23.5 451.877 23.5H421.14V98.5H440.158V78.5714H450.532L462.731 98.5ZM462.539 51.25C462.539 58.1071 458.6 62.1786 450.724 62.1786H440.158V40.2143H450.724C458.6 40.2143 462.539 44.2857 462.539 51.25Z" fill="black"></path> <path d="M556.886 23.5V51.6786H530.951V23.5H511.933V98.5H530.951V69.25H556.886V98.5H575.904V23.5H556.886Z" fill="black"></path> <path d="M642.917 100C664.433 100 680.282 83.5 680.282 61C680.282 38.5 664.433 22 642.917 22C621.401 22 605.553 38.5 605.553 61C605.553 83.5 621.401 100 642.917 100ZM642.917 82.4286C632.736 82.4286 624.763 73.9643 624.763 61C624.763 48.0357 632.736 39.5714 642.917 39.5714C653.099 39.5714 661.071 48.0357 661.071 61C661.071 73.9643 653.099 82.4286 642.917 82.4286Z" fill="black"></path> <path d="M740.959 100C760.843 100 772.561 87.4643 772.561 65.0714V23.5H753.831V64.4286C753.831 77.2857 749.028 82.4286 741.152 82.4286C733.179 82.4286 728.376 77.2857 728.376 64.4286V23.5H709.358V65.0714C709.358 87.4643 721.076 100 740.959 100Z" fill="black"></path> <path d="M828.765 100C848.744 100 858.542 88.8571 858.542 75.7857C858.542 48.1429 820.409 56.7143 820.409 45.25C820.409 41.5 823.29 38.5 831.263 38.5C837.122 38.5 843.461 40.4286 849.897 44.2857L855.756 28.5357C849.129 24.25 840.099 22 831.359 22C811.379 22 801.582 32.9286 801.582 46.3214C801.582 74.1786 839.811 65.5 839.811 77.3929C839.811 81.0357 836.738 83.5 828.861 83.5C821.081 83.5 812.628 80.5 806.673 76.1071L800.429 91.75C806.769 96.6786 817.719 100 828.765 100Z" fill="black"></path> <path d="M905.844 82.1071V68.3929H935.717V52.5357H905.844V39.8929H939.751V23.5H887.018V98.5H941V82.1071H905.844Z" fill="black"></path> <path d="M270.287 159.741C274.026 159.741 277.366 158.448 279.616 155.935L277.91 154.198C275.841 156.379 273.3 157.302 270.396 157.302C264.26 157.302 259.65 152.72 259.65 146.586C259.65 140.451 264.26 135.869 270.396 135.869C273.3 135.869 275.841 136.793 277.91 138.936L279.616 137.199C277.366 134.686 274.026 133.43 270.323 133.43C262.663 133.43 257 139.01 257 146.586C257 154.161 262.663 159.741 270.287 159.741Z" fill="black"></path> <path d="M294.312 133.652H284.801V159.52H287.487V151.353H294.312C300.774 151.353 304.695 148.027 304.695 142.521C304.695 136.978 300.774 133.652 294.312 133.652ZM294.24 148.951H287.487V136.017H294.24C299.322 136.017 302.008 138.382 302.008 142.521C302.008 146.586 299.322 148.951 294.24 148.951Z" fill="black"></path> <path d="M321.356 159.741C328.98 159.741 334.679 154.161 334.679 146.586C334.679 139.01 328.98 133.43 321.356 133.43C313.66 133.43 307.997 139.047 307.997 146.586C307.997 154.124 313.66 159.741 321.356 159.741ZM321.356 157.302C315.221 157.302 310.647 152.757 310.647 146.586C310.647 140.414 315.221 135.869 321.356 135.869C327.455 135.869 331.993 140.414 331.993 146.586C331.993 152.757 327.455 157.302 321.356 157.302Z" fill="black"></path> <path d="M355.514 133.652V146.364C352.9 147.583 350.214 148.212 347.746 148.212C343.317 148.212 340.703 145.92 340.703 141.892V133.652H338.053V142.188C338.053 147.51 341.538 150.614 347.491 150.614C349.96 150.614 352.719 150.022 355.514 148.803V159.52H358.128V133.652H355.514Z" fill="black"></path> <path d="M384.972 133.652V145.181H369.071V133.652H366.385V159.52H369.071V147.583H384.972V159.52H387.622V133.652H384.972Z" fill="black"></path> <path d="M406.473 142.89H398.487V133.652H395.836V159.52H405.929C412.209 159.52 415.73 156.6 415.73 151.02C415.73 145.662 412.463 142.89 406.473 142.89ZM420.123 159.52H422.773V133.652H420.123V159.52ZM405.856 157.339H398.487V145.108H405.856C410.612 145.108 413.044 147.029 413.044 151.057C413.044 155.196 410.539 157.339 405.856 157.339Z" fill="black"></path> <path d="M441.561 131.767C445.155 131.767 447.405 129.993 447.478 127H445.481C445.409 128.996 443.848 130.178 441.561 130.178C439.237 130.178 437.676 128.996 437.64 127H435.643C435.68 129.993 437.93 131.767 441.561 131.767ZM430.96 159.52H433.393L449.656 138.123V159.52H452.306V133.652H449.874L433.61 155.085V133.652H430.96V159.52Z" fill="black"></path> <path d="M484.722 146.179C487.263 145.218 488.86 143.26 488.86 140.267C488.86 135.943 485.557 133.652 480.22 133.652H469.656V159.52H480.91C487.045 159.52 490.131 156.97 490.131 152.535C490.131 149.099 488.279 146.918 484.722 146.179ZM472.306 135.832H480.075C483.959 135.832 486.174 137.495 486.174 140.599C486.174 143.74 483.959 145.366 480.075 145.366H472.306V135.832ZM480.91 157.339H472.306V147.473H480.91C485.194 147.473 487.481 148.988 487.481 152.351C487.481 155.75 485.194 157.339 480.91 157.339Z" fill="black"></path> <path d="M507.121 142.89H499.135V133.652H496.485V159.52H506.577C512.857 159.52 516.378 156.6 516.378 151.02C516.378 145.662 513.111 142.89 507.121 142.89ZM520.771 159.52H523.421V133.652H520.771V159.52ZM506.504 157.339H499.135V145.108H506.504C511.26 145.108 513.692 147.029 513.692 151.057C513.692 155.196 511.187 157.339 506.504 157.339Z" fill="black"></path> <path d="M548.997 159.52H552.083L542.1 146.216L551.538 133.652H548.634L540.031 145.255H534.222V133.652H531.608V159.52H534.222V147.657H540.031L548.997 159.52Z" fill="black"></path> <path d="M573.164 133.652L564.089 151.168L555.231 133.652H552.363L562.673 153.57L561.947 154.826C560.785 156.822 559.369 157.598 557.845 157.598C557.082 157.598 556.284 157.413 555.449 157.081L554.686 159.298C555.739 159.741 556.792 160 557.808 160C560.313 160 562.636 158.596 564.306 155.418L575.85 133.652H573.164Z" fill="black"></path> <path d="M579.664 133.652V159.52H582.314V136.017H598.396V159.52H601.046V133.652H579.664Z" fill="black"></path> <path d="M637.708 159.52H640.539L628.923 133.652H626.273L614.656 159.52H617.451L620.501 152.609H634.659L637.708 159.52ZM621.481 150.392L627.58 136.497L633.678 150.392H621.481Z" fill="black"></path> <path d="M660.112 146.179C662.653 145.218 664.25 143.26 664.25 140.267C664.25 135.943 660.946 133.652 655.61 133.652H645.046V159.52H656.3C662.435 159.52 665.521 156.97 665.521 152.535C665.521 149.099 663.669 146.918 660.112 146.179ZM647.696 135.832H655.465C659.349 135.832 661.564 137.495 661.564 140.599C661.564 143.74 659.349 145.366 655.465 145.366H647.696V135.832ZM656.3 157.339H647.696V147.473H656.3C660.583 147.473 662.87 148.988 662.87 152.351C662.87 155.75 660.583 157.339 656.3 157.339Z" fill="black"></path> <path d="M688.146 133.652H667.635V136.017H676.566V159.52H679.216V136.017H688.146V133.652Z" fill="black"></path> <path d="M703.289 159.741C710.912 159.741 716.612 154.161 716.612 146.586C716.612 139.01 710.912 133.43 703.289 133.43C695.593 133.43 689.93 139.047 689.93 146.586C689.93 154.124 695.593 159.741 703.289 159.741ZM703.289 157.302C697.154 157.302 692.58 152.757 692.58 146.586C692.58 140.414 697.154 135.869 703.289 135.869C709.388 135.869 713.925 140.414 713.925 146.586C713.925 152.757 709.388 157.302 703.289 157.302Z" fill="black"></path> <path d="M746.837 133.652L735.91 152.831L724.874 133.652H722.659V159.52H725.237V138.936L735.22 156.231H736.49L746.474 138.825V159.52H749.051V133.652H746.837Z" fill="black"></path> <path d="M768.396 159.741C776.02 159.741 781.719 154.161 781.719 146.586C781.719 139.01 776.02 133.43 768.396 133.43C760.7 133.43 755.037 139.047 755.037 146.586C755.037 154.124 760.7 159.741 768.396 159.741ZM768.396 157.302C762.261 157.302 757.687 152.757 757.687 146.586C757.687 140.414 762.261 135.869 768.396 135.869C774.495 135.869 779.033 140.414 779.033 146.586C779.033 152.757 774.495 157.302 768.396 157.302Z" fill="black"></path> <path d="M787.767 159.52H798.149C804.429 159.52 807.914 156.785 807.914 151.796C807.914 146.992 804.72 144.442 798.73 144.442H790.417V135.98H806.353V133.652H787.767V159.52ZM790.417 157.339V146.623H798.113C802.868 146.623 805.228 148.323 805.228 151.907C805.228 155.492 802.796 157.339 798.113 157.339H790.417Z" fill="black"></path> <path d="M813.78 159.52H816.212L832.475 138.123V159.52H835.125V133.652H832.693L816.43 155.085V133.652H813.78V159.52Z" fill="black"></path> <path d="M845.634 133.652L845.271 144.738C844.944 153.459 843.71 157.228 840.479 157.228C840.08 157.228 839.753 157.191 839.281 157.081L839.063 159.52C839.826 159.704 840.443 159.778 841.096 159.778C845.707 159.778 847.304 155.011 847.667 144.664L847.957 136.017H860.227V159.52H862.878V133.652H845.634Z" fill="black"></path> <path d="M873.774 157.155V147.546H886.915V145.218H873.774V136.017H888.513V133.652H871.088V159.52H889.057V157.155H873.774Z" fill="black"></path> <path d="M905.255 131.767C908.848 131.767 911.099 129.993 911.172 127H909.175C909.103 128.996 907.542 130.178 905.255 130.178C902.931 130.178 901.37 128.996 901.334 127H899.337C899.374 129.993 901.624 131.767 905.255 131.767ZM894.654 159.52H897.087L913.35 138.123V159.52H916V133.652H913.568L897.304 155.085V133.652H894.654V159.52Z" fill="black"></path> </g> <defs> <clipPath id="clip0_14_75"> <rect width="948" height="181" fill="white"></rect> </clipPath> </defs> </svg> 