<?xml version="1.0" encoding="UTF-8"?> <svg xmlns="http://www.w3.org/2000/svg" width="223" height="223" viewBox="0 0 223 223" fill="none"> <g clip-path="url(#clip0_16_87)"> <path d="M50.663 205.823L54.8479 207.916C72.288 218.379 91.819 223.262 111.351 223.262C172.736 223.262 222.96 173.038 222.96 111.653C222.96 82.3559 211.101 53.7559 190.175 32.8289C169.248 11.9019 141.345 0.0439453 111.351 0.0439453C49.966 0.0439453 -0.259049 50.2679 0.438951 112.351C0.438951 133.277 6.71695 153.507 17.18 170.945L19.97 175.131L8.80995 216.287L50.663 205.823Z" fill="#00E676"></path> <path d="M173.433 140.952L165.76 137.464C165.76 137.464 154.6 132.581 147.624 129.093C146.926 129.093 146.229 128.395 145.531 128.395C143.438 128.395 142.043 129.093 140.648 129.791C140.648 129.791 139.951 130.488 130.185 141.649C129.487 143.044 128.092 143.742 126.697 143.742H125.999C125.302 143.742 123.907 143.044 123.209 142.347L119.721 140.952C112.048 137.464 105.073 133.278 99.492 127.698C98.097 126.303 96.004 124.908 94.609 123.513C89.726 118.63 84.843 113.049 81.356 106.771L80.658 105.376C79.961 104.678 79.961 103.981 79.263 102.586C79.263 101.191 79.263 99.7961 79.961 99.0981C79.961 99.0981 82.751 95.6101 84.843 93.5181C86.239 92.1221 86.936 90.0301 88.331 88.6351C89.726 86.5421 90.424 83.7521 89.726 81.6591C89.029 78.1711 80.658 59.3371 78.566 55.1521C77.17 53.0591 75.776 52.3621 73.683 51.6641H66.01C64.614 51.6641 63.22 52.3621 61.824 52.3621L61.126 53.0591C59.731 53.7571 58.336 55.1521 56.941 55.8491C55.546 57.2451 54.848 58.6391 53.453 60.0351C48.57 66.3131 45.78 73.9861 45.78 81.6591C45.78 87.2391 47.175 92.8201 49.268 97.7031L49.966 99.7961C56.244 113.049 64.614 124.908 75.776 135.371L78.566 138.161C80.658 140.254 82.751 141.649 84.146 143.741C98.795 156.298 115.536 165.366 134.37 170.249C136.463 170.946 139.253 170.946 141.346 171.644H148.321C151.809 171.644 155.994 170.249 158.785 168.854C160.877 167.459 162.272 167.459 163.667 166.064L165.063 164.668C166.458 163.273 167.853 162.576 169.248 161.181C170.643 159.786 172.038 158.391 172.736 156.995C174.131 154.205 174.828 150.717 175.526 147.23V142.347C175.526 142.347 174.828 141.649 173.433 140.952Z" fill="white"></path> </g> <defs> <clipPath id="clip0_16_87"> <rect width="223" height="223" fill="white"></rect> </clipPath> </defs> </svg> 