<?xml version="1.0" encoding="UTF-8"?> <svg xmlns="http://www.w3.org/2000/svg" width="209" height="68" viewBox="0 0 209 68" fill="none"> <g clip-path="url(#clip0_43_8)"> <path d="M5.3101 46.7269C5.95709 46.4115 6.56333 46.0186 7.11549 45.5569C15.8204 36.4654 26.5385 29.5449 38.4068 25.3528C83.0083 8.93589 128.05 7.56361 173.277 22.786C178.679 24.6085 183.719 27.4891 188.936 29.8739L188.685 31.1583C187.215 31.2261 185.746 31.3256 184.273 31.3524C179.951 31.4409 175.618 31.4695 171.293 31.5802C170.177 31.5156 169.059 31.6785 168.008 32.0591C167.605 32.2731 167.259 32.578 166.995 32.9495C166.731 33.321 166.557 33.7489 166.488 34.1992C166.559 34.6472 166.736 35.0716 167.006 35.4366C167.275 35.8017 167.628 36.0966 168.035 36.2966C169.253 36.6919 170.533 36.8627 171.812 36.8008C179.827 36.8644 187.843 36.8921 195.861 36.884C196.662 36.8985 197.462 36.8461 198.253 36.7274C201.241 36.1831 202.517 34.9541 201.827 32.1553C199.99 24.6729 197.844 17.2769 195.714 9.92822C195.639 9.5254 195.473 9.1448 195.23 8.81467C194.987 8.48454 194.673 8.21333 194.311 8.0212C193.949 7.82907 193.548 7.72093 193.139 7.7048C192.729 7.68868 192.321 7.765 191.945 7.92807C190.123 8.56378 189.61 10.0984 190.067 11.8346C191.296 16.4792 192.622 21.1003 193.929 25.9399C193.249 25.9651 192.73 26.1463 192.424 25.9671C172.926 14.7642 151.576 10.0324 129.45 8.20828C102.297 5.96699 75.582 8.4445 49.5175 16.5202C36.7294 20.4836 24.5301 25.8619 14.1642 34.5828C11.0005 37.2328 8.37409 40.5425 5.58323 43.6237C5.07565 44.3528 4.67263 45.1494 4.38588 45.9902L5.3101 46.7269Z" fill="#071A27"></path> </g> <defs> <clipPath id="clip0_43_8"> <rect width="209" height="68" fill="white"></rect> </clipPath> </defs> </svg> 